PathFileType	4	(X/Y/Z)	C:/Users/opensim2020/Desktop/walking_exp_matlab/subject01_walking15_straight_02.trc																																																																																																																															
DataRate	CameraRate	NumFrames	NumMarkers	Units	OrigDataRate	OrigDataStartFrame	OrigNumFrames																																																																																																																											
100	100	4	43	mm	100	1161	135																																																																																																																											
Frame#	Time	LFHD			RFHD			LBHD			RBHD			C7			T10			CLAV			STRN			RBAK			LSHO			LUPA			LELB			LFRM			LWRA			LWRB			LFIN			RSHO			RUPA			RELB			RFRM			RWRA			RWRB			RFIN			LASI			RASI			LPSI			RPSI			LTHI			LKNE			LTIB			LANK			LHEE			LTOE			RTHI			RKNE			RTIB			RANK			RHEE			RTOE			*39			*40			*41			*42		
		X1	Y1	Z1	X2	Y2	Z2	X3	Y3	Z3	X4	Y4	Z4	X5	Y5	Z5	X6	Y6	Z6	X7	Y7	Z7	X8	Y8	Z8	X9	Y9	Z9	X10	Y10	Z10	X11	Y11	Z11	X12	Y12	Z12	X13	Y13	Z13	X14	Y14	Z14	X15	Y15	Z15	X16	Y16	Z16	X17	Y17	Z17	X18	Y18	Z18	X19	Y19	Z19	X20	Y20	Z20	X21	Y21	Z21	X22	Y22	Z22	X23	Y23	Z23	X24	Y24	Z24	X25	Y25	Z25	X26	Y26	Z26	X27	Y27	Z27	X28	Y28	Z28	X29	Y29	Z29	X30	Y30	Z30	X31	Y31	Z31	X32	Y32	Z32	X33	Y33	Z33	X34	Y34	Z34	X35	Y35	Z35	X36	Y36	Z36	X37	Y37	Z37	X38	Y38	Z38	X39	Y39	Z39	X40	Y40	Z40	X41	Y41	Z41	X42	Y42	Z42	X43	Y43	Z43
																																																																																																																																		
17	0.16	-746.43884	1662.4303	990.31439	-707.50079	1674.57495	1097.39771	-854.00946	1613.98462	1028.07422	-816.43817	1625.76855	1142.32263	-877.8042	1431.87109	1060.09973	-935.04449	1141.75806	1079.66626	-734.57623	1359.12488	1071.96399	-703.25281	1200.90625	1078.31091	-948.96033	1249.76172	1141.74646	-785.28882	1388.96741	907.44128	-802.85931	1204.81775	823.68323	-800.32129	1049.23389	824.59644	-711.28815	970.40533	817.6861	-584.98236	921.39294	849.6911	-626.78986	882.91071	831.23395	-548.95557	851.11377	827.00543	-805.52289	1405.00232	1216.25281	-914.12219	1228.8678	1314.77795	-936.40649	1106.81238	1325.46606	-942.72437	989.25067	1364.69104	-895.17633	853.27704	1359.12878	-939.45361	868.74219	1394.18079	-926.85773	780.52747	1399.06543	-766.71448	928.43835	980.70093	-764.78546	936.58795	1197.849	-951.19922	947.87213	1037.84009	-946.09973	946.2193	1182.71265	-861.62732	595.39624	953.51123	-902.05066	466.13773	981.60663	-990.88403	296.2962	994.30902	-1048.17456	89.63189	1070.78259	-1091.53979	70.61992	1129.43372	-908.16711	37.92067	1055.78906	-710.98004	625.14551	1276.21521	-654.68396	476.41959	1257.22009	-706.14374	307.59735	1276.8175	-724.50562	97.05184	1244.68091	-768.57092	55.29468	1192.36328	-588.7431	55.36922	1257.11548	-726.00763	1706.29956	1076.18994	-1973.198	1023.54663	3101.99976	-2012.51233	1022.14783	3140.78271	NaN	NaN	NaN
18	0.17	-734.07117	1661.76074	991.77515	-695.17603	1673.77466	1098.98169	-841.59662	1613.11621	1029.47839	-804.11249	1624.86414	1143.84265	-865.1167	1430.79871	1061.51099	-921.75256	1140.52844	1081.04004	-721.66846	1358.23853	1073.05225	-690.15656	1200.13855	1079.12061	-935.69812	1248.34949	1143.0094	-772.71063	1388.31995	908.67072	-789.28302	1204.3291	824.81915	-784.03943	1048.77869	824.85376	-692.62579	972.65033	817.94995	-564.95282	927.61072	850.01953	-605.50818	887.99707	831.50421	-526.68756	858.78656	826.95264	-792.55847	1403.81995	1217.52759	-900.89227	1227.44678	1316.01172	-923.58276	1105.88867	1326.36865	-932.08392	988.75476	1365.55737	-887.50781	851.70288	1359.8175	-931.15424	868.13708	1395.30371	-921.06476	779.16376	1399.16602	-754.19666	927.22766	980.93115	-750.3847	935.53241	1198.45947	-938.09552	947.28558	1039.59351	-931.93396	945.2063	1184.24329	-854.17102	595.5766	953.25928	-896.30664	466.69135	981.18268	-987.40283	298.12216	993.89813	-1047.34338	91.79781	1069.97668	-1090.96912	73.80785	1128.35754	-908.0957	37.99605	1055.94006	-699.21289	622.62775	1275.17993	-642.33923	474.89307	1255.5238	-682.22455	303.86963	1276.7417	-684.93781	91.63264	1244.75671	-727.61151	47.3911	1193.64331	-546.2713	59.09221	1253.17566	-713.69458	1705.48645	1077.74976	-1973.11572	1023.62646	3101.97314	-2012.4563	1021.98712	3140.73022	NaN	NaN	NaN
19	0.18	-721.66901	1660.95984	993.40515	-682.83087	1672.91675	1100.57361	-829.17065	1612.17737	1031.03235	-791.75818	1623.85352	1145.36438	-852.31262	1429.68616	1063.08606	-908.49329	1139.31189	1082.51392	-708.6593	1357.4613	1074.24817	-676.94324	1199.26636	1079.94556	-922.36597	1246.8938	1144.37854	-760.14941	1387.69299	909.95258	-775.13641	1203.64856	825.9068	-767.93671	1048.56299	824.82977	-674.16144	974.91687	818.2171	-545.43811	933.68097	850.31952	-584.62592	892.75641	832.0675	-505.08011	866.1983	826.87762	-779.46497	1402.54578	1218.84473	-887.82349	1226.07971	1317.1062	-910.71692	1104.89575	1327.3512	-921.11279	988.19037	1366.57007	-879.34601	850.04462	1360.53979	-922.52557	867.66003	1396.49194	-914.64032	778.18878	1399.70337	-741.61713	926.09167	981.17023	-735.74951	934.31073	1198.72534	-924.85095	946.63336	1041.4082	-917.56396	944.47845	1185.97278	-846.22607	595.78229	952.99524	-889.92328	467.23889	980.68695	-983.38727	300.03464	993.10486	-1046.41382	94.37304	1068.89026	-1090.3324	77.22237	1127.04749	-908.12091	37.80289	1055.66284	-688.60968	619.44293	1273.95996	-630.27747	473.05679	1254.04797	-659.0376	300.64053	1276.13428	-647.5321	88.31071	1244.53772	-688.14587	41.44878	1194.19861	-506.03952	64.2223	1248.46912	-701.24335	1704.83691	1079.6897	-1973.12598	1023.58777	3101.9646	-2012.49487	1022.00208	3140.74561	NaN	NaN	NaN
20	0.19	-709.3725	1660.13757	995.08014	-670.52997	1672.03101	1102.28784	-816.65741	1611.06348	1032.61951	-779.35309	1622.68823	1146.86487	-839.47455	1428.46716	1064.73547	-895.05707	1137.98584	1084.06348	-695.66003	1356.64038	1075.48328	-663.5943	1198.40222	1080.86877	-908.91168	1245.30432	1145.84253	-747.41333	1387.05493	911.45898	-761.28491	1203.1499	827.0946	-751.31573	1048.04199	825.50708	-655.94159	977.14862	818.60504	-526.30975	939.48309	850.58795	-564.328	897.45221	832.37561	-484.09799	873.52094	826.68951	-766.23743	1401.2771	1220.42871	-874.76447	1224.77283	1318.26196	-897.78345	1103.89734	1328.42627	-909.89142	987.60272	1367.64661	-870.74896	848.41455	1361.32678	-913.16718	867.10931	1397.73816	-907.69855	777.3139	1400.22083	-728.81683	924.91394	981.22974	-720.87811	933.10052	1198.98975	-911.40851	945.82526	1043.28906	-902.85608	943.70416	1187.75647	-837.55109	595.89746	952.85022	-882.74078	467.72592	980.17157	-978.11664	301.68826	992.67444	-1045.29724	96.94759	1067.70581	-1089.6449	80.96476	1125.58618	-907.9328	37.7432	1055.54614	-678.89105	615.92218	1273.46191	-617.85138	471.08261	1252.51257	-636.69037	298.27856	1275.42578	-611.97015	86.40338	1243.05322	-650.76868	37.28321	1193.77014	-468.92838	70.81689	1243.33154	-689.17761	1703.62549	1080.91162	-1973.21313	1023.44659	3101.8457	-2012.50671	1021.96167	3140.7439	NaN	NaN	NaN
